<svg xmlns="http://www.w3.org/2000/svg">

    <symbol id='delete_file' viewBox="0 0 16 17" >
        <path fill-rule="evenodd" clip-rule="evenodd" d="M15.2983 2.65842C15.7545 2.20342 15.7545 1.46375 15.2983 1.00875C14.8433 0.552584 14.1048 0.552584 13.6486 1.00875L7.90398 6.75342L2.15814 1.00875C1.70314 0.552584 0.963476 0.552584 0.508476 1.00875C0.0523096 1.46375 0.0523096 2.20342 0.508476 2.65842L6.25314 8.40425L0.508476 14.1489C0.0523096 14.6051 0.0523096 15.3436 0.508476 15.7986C0.963476 16.2548 1.70314 16.2548 2.15814 15.7986L7.90398 10.0539L13.6486 15.7986C14.1048 16.2548 14.8433 16.2548 15.2983 15.7986C15.7545 15.3436 15.7545 14.6051 15.2983 14.1489L9.55364 8.40425L15.2983 2.65842Z" />
    </symbol>

    
    <symbol id='upload_file' viewBox="0 0 30 30" >
       <path d="M20.3327 3.91797C20.3327 2.03319 18.7995 0.5 16.9147 0.5H3.58463C1.69985 0.5 0.166656 2.03319 0.166656 3.91797V17.248C0.166656 19.1328 1.69985 20.666 3.58463 20.666H9.05338V22.9447H11.332V20.666H16.9147C18.7995 20.666 20.3327 19.1328 20.3327 17.248V11.7793H22.5544V9.50065H20.3327V3.91797ZM18.054 17.248C18.054 17.8762 17.5429 18.3874 16.9147 18.3874H3.58463C2.95644 18.3874 2.4453 17.8762 2.4453 17.248V3.91797C2.4453 3.28978 2.95644 2.77865 3.58463 2.77865H16.9147C17.5429 2.77865 18.054 3.28978 18.054 3.91797V17.248ZM27.0547 25.1094H29.3333V27.388C29.3333 28.6464 28.313 29.6667 27.0547 29.6667H24.833V27.388H27.0547V25.1094ZM15.7184 27.388H17.9971V29.6667H15.7184V27.388ZM20.2757 27.388H22.5544V29.6667H20.2757V27.388ZM29.3333 11.7793V14.0579H27.0547V11.7793H24.833V9.50065H27.0547C28.313 9.50065 29.3333 10.5209 29.3333 11.7793ZM27.0547 16.2227H29.3333V18.5013H27.0547V16.2227ZM27.0547 20.666H29.3333V22.9447H27.0547V20.666ZM11.332 27.388H13.5537V29.6667H11.332C10.0736 29.6667 9.05338 28.6464 9.05338 27.388V25.1094H11.332V27.388ZM13.4398 9.27279H15.7184V16.1087H8.88248V13.8301H11.8285L7.7634 9.76501L9.3747 8.15394L13.4398 12.2188V9.27279Z" />
    </symbol>

    
    <symbol id='select' viewBox="0 0 10 7" fill="none" >
    <path fill-rule="evenodd" clip-rule="evenodd" d="M5.625 4.74112L1.06694 0.183058C0.822865 -0.0610194 0.427135 -0.0610194 0.183058 0.183058C-0.0610199 0.427136 -0.0610199 0.822864 0.183058 1.06694L5.625 6.50888L11.0669 1.06694C11.311 0.822864 11.311 0.427136 11.0669 0.183058C10.8229 -0.0610194 10.4271 -0.0610194 10.1831 0.183058L5.625 4.74112Z" fill="#6A6E72"/>
    </symbol>
    
    <symbol id='website' viewBox="0 0 18 18" fill="none">
        <path d="M16.8882 4.64886L16.8023 4.5C15.2437 1.81274 12.3371 0 9.01318 0C5.68909 0 2.78247 1.81274 1.22406 4.5L1.13818 4.64886C0.537048 5.73267 0.154541 6.95288 0.046875 8.25V9.75C0.154541 11.0471 0.537048 12.2673 1.13818 13.3508L1.22406 13.5C2.78247 16.1873 5.68909 18 9.01318 18C12.3371 18 15.2437 16.1873 16.8023 13.5L16.8882 13.3508C17.4893 12.267 17.8718 11.0471 17.9793 9.75V8.25C17.8718 6.95288 17.4893 5.73267 16.8882 4.64886V4.64886ZM13.4978 8.25C13.4681 7.4621 13.3923 6.7088 13.2746 6H15.8824C16.1898 6.70129 16.3958 7.45679 16.4749 8.25H13.4978ZM9.01318 16.5C8.16522 16.5 7.25958 15.3446 6.66742 13.5H11.3591C10.7666 15.3446 9.86096 16.5 9.01318 16.5ZM6.28656 12C6.15454 11.3051 6.06519 10.5498 6.0304 9.75H11.9958C11.961 10.5498 11.8718 11.3051 11.7398 12H6.28656ZM6.0304 8.25C6.06519 7.4502 6.15454 6.69489 6.28656 6H11.7398C11.8718 6.69489 11.961 7.4502 11.9958 8.25H6.0304ZM9.01318 1.5C9.86096 1.5 10.7666 2.65576 11.3588 4.5H6.66742C7.25958 2.65576 8.16522 1.5 9.01318 1.5ZM14.9989 4.5H12.9472C12.6942 3.58502 12.3638 2.77881 11.9711 2.11011C13.1783 2.63068 14.217 3.46271 14.9989 4.5V4.5ZM6.05548 2.11011C5.66254 2.77881 5.33221 3.58502 5.07898 4.5H3.02747C3.80933 3.46271 4.84808 2.63068 6.05548 2.11011ZM2.1438 6H4.75159C4.63422 6.7088 4.55804 7.4621 4.52856 8.25H1.55109C1.63019 7.45679 1.836 6.70129 2.1438 6ZM4.52856 9.75C4.55804 10.5379 4.63385 11.2912 4.75159 12H2.1438C1.83636 11.2987 1.63055 10.5432 1.55145 9.75H4.52856ZM3.02747 13.5H5.07898C5.33221 14.415 5.66254 15.2212 6.05511 15.8899C4.84808 15.3693 3.80933 14.5373 3.02747 13.5ZM11.9707 15.8899C12.3638 15.2212 12.6942 14.415 12.9468 13.5H14.9985C14.217 14.5373 13.1783 15.3693 11.9707 15.8899ZM15.8828 12H13.275C13.3923 11.2912 13.4685 10.5379 13.4982 9.75H16.4756C16.3962 10.5432 16.1902 11.2987 15.8828 12V12Z" fill="#6A6E72"/>
    </symbol>

    
    <symbol id="vk" viewBox="0 0 19 11" fill="none">
        <path fill-rule="evenodd" clip-rule="evenodd" d="M16.3521 6.96054C16.9823 7.57587 17.6476 8.15481 18.2128 8.8322C18.4625 9.13322 18.6989 9.44385 18.8798 9.79319C19.136 10.2898 18.9039 10.8363 18.4587 10.8659L15.6907 10.8647C14.9768 10.9239 14.4073 10.6365 13.9284 10.1484C13.5452 9.75804 13.1903 9.34259 12.8218 8.93907C12.6707 8.77414 12.5126 8.61895 12.3237 8.49628C11.9458 8.25101 11.6178 8.32611 11.4019 8.72021C11.182 9.12104 11.1321 9.56489 11.1105 10.0116C11.0808 10.6634 10.8838 10.8348 10.2291 10.8646C8.82987 10.9306 7.50194 10.7189 6.26834 10.0131C5.18075 9.39079 4.33737 8.51233 3.60331 7.51782C2.17406 5.58129 1.07954 3.45337 0.0958344 1.26584C-0.125591 0.772981 0.0363423 0.508419 0.580136 0.499055C1.48313 0.481513 2.386 0.482762 3.29005 0.497807C3.65706 0.503175 3.90002 0.713676 4.04172 1.06039C4.53027 2.26166 5.12806 3.40455 5.87842 4.46393C6.07825 4.74597 6.28201 5.02801 6.57217 5.22652C6.89316 5.44633 7.13756 5.37348 7.28857 5.0159C7.38439 4.78917 7.42634 4.54496 7.44794 4.30212C7.51948 3.46667 7.52891 2.63266 7.40343 1.80014C7.3264 1.28057 7.03374 0.944216 6.5153 0.845895C6.25073 0.795766 6.29012 0.697321 6.41822 0.546312C6.64071 0.28587 6.84996 0.123749 7.26709 0.123749H10.3953C10.8878 0.220946 10.9972 0.442185 11.0646 0.937723L11.0673 4.41255C11.0619 4.60439 11.1631 5.17365 11.5086 5.30062C11.7852 5.39102 11.9675 5.16978 12.1334 4.99442C12.8824 4.19949 13.4169 3.26004 13.8945 2.28725C14.1064 1.85951 14.2887 1.41528 14.4653 0.971434C14.5961 0.642073 14.8014 0.480015 15.1724 0.487194L18.1832 0.489878C18.2724 0.489878 18.3628 0.491189 18.4492 0.505984C18.9566 0.592444 19.0956 0.810686 18.9389 1.3061C18.692 2.08337 18.2116 2.7311 17.7419 3.38183C17.2398 4.07657 16.7029 4.74753 16.2049 5.44639C15.7475 6.08457 15.7838 6.40625 16.3521 6.96054Z" fill="#597DA3"/>
    </symbol>

        
    <symbol id="ok" viewBox="0 0 12 18" fill="none">
        <path d="M0.540763 9.66077C0.0810128 10.5645 0.603013 10.9965 1.79401 11.7345C2.80651 12.36 4.20526 12.5888 5.10376 12.6803C4.73551 13.0343 6.42301 11.4113 1.56301 16.086C0.532513 17.0738 2.19151 18.6585 3.22126 17.6918L6.00901 15.003C7.07626 16.0298 8.09926 17.0138 8.79676 17.6955C9.82726 18.666 11.4855 17.0948 10.4663 16.0898C10.3898 16.017 6.68851 12.4665 6.91426 12.684C7.82401 12.5925 9.20176 12.3503 10.2023 11.7383L10.2015 11.7375C11.3925 10.9958 11.9145 10.5645 11.4615 9.66077C11.1878 9.14777 10.4498 8.71877 9.46726 9.46052C9.46726 9.46052 8.14051 10.4768 6.00076 10.4768C3.86026 10.4768 2.53426 9.46052 2.53426 9.46052C1.55251 8.71502 0.811513 9.14777 0.540763 9.66077Z" fill="#E08641"/>
        <path d="M6.001 9.10649C8.6095 9.10649 10.7395 7.06799 10.7395 4.55849C10.7395 2.03849 8.6095 -7.62939e-06 6.001 -7.62939e-06C3.39175 -7.62939e-06 1.26175 2.03849 1.26175 4.55849C1.26175 7.06799 3.39175 9.10649 6.001 9.10649ZM6.001 2.30924C7.28275 2.30924 8.32825 3.31499 8.32825 4.55849C8.32825 5.79149 7.28275 6.79724 6.001 6.79724C4.71925 6.79724 3.67375 5.79149 3.67375 4.55849C3.673 3.31424 4.7185 2.30924 6.001 2.30924Z" fill="#E08641"/>
    </symbol>
    
    
    <symbol id='facebook' viewBox="0 0 9 17" fill="none">
        <path fill-rule="evenodd" clip-rule="evenodd" d="M5.84225 17V9.24607H8.49469L8.89264 6.22333H5.84225V4.29375C5.84225 3.41887 6.08893 2.82265 7.36946 2.82265L9 2.82199V0.118345C8.71802 0.0824035 7.75008 0 6.62351 0C4.27103 0 2.66048 1.40842 2.66048 3.99438V6.22333H0V9.24607H2.66048V17H5.84225Z" fill="#3B5998"/>
    </symbol>

    
    <symbol id="youtube" viewBox="0 0 18 14" fill="none">
        <path d="M17.2984 1.75358C16.6487 0.981211 15.4491 0.666153 13.1581 0.666153H4.84177C2.49834 0.666153 1.27841 1.00153 0.631103 1.82384C0 2.6256 0 3.80692 0 5.4419V8.55817C0 11.7256 0.7488 13.3339 4.84177 13.3339H13.1581C15.1449 13.3339 16.2458 13.0558 16.958 12.3742C17.6884 11.6752 18 10.534 18 8.55817V5.4419C18 3.71768 17.9512 2.52938 17.2984 1.75358ZM11.5561 7.43026L7.77966 9.40393C7.69523 9.44806 7.60291 9.46995 7.5107 9.46995C7.4063 9.46995 7.30214 9.44185 7.20987 9.38599C7.03614 9.28072 6.93006 9.09242 6.93006 8.88931V4.95462C6.93006 4.75186 7.03585 4.56373 7.20923 4.4584C7.38267 4.35308 7.59838 4.34588 7.77832 4.43936L11.5547 6.40031C11.7469 6.50007 11.8675 6.69842 11.8678 6.91482C11.868 7.1314 11.7479 7.33004 11.5561 7.43026Z" fill="#C4302B"/>
    </symbol>

    
<symbol id='inst' viewBox="0 0 18 18" fill="none" >
    <path d="M17.627 3.41621C17.3949 2.81855 17.0855 2.3123 16.5793 1.80605C16.073 1.2998 15.5668 0.990429 14.9691 0.758398C14.3926 0.533398 13.7246 0.37871 12.7613 0.336523C11.791 0.294335 11.4816 0.280273 9.00664 0.280273C6.53164 0.280273 6.22227 0.287304 5.25195 0.336523C4.28164 0.37871 3.6207 0.533398 3.04414 0.758398C2.44649 0.990429 1.94023 1.2998 1.43398 1.80605C0.927734 2.3123 0.61836 2.81855 0.386328 3.41621C0.161328 3.99277 0.00664085 4.66074 -0.0355467 5.62402C-0.0777342 6.59434 -0.0917969 6.90371 -0.0917969 9.37871C-0.0917969 11.8537 -0.0847654 12.1631 -0.0355467 13.1334C0.00664085 14.1037 0.161328 14.7646 0.386328 15.3412C0.61836 15.9389 0.927734 16.4451 1.43398 16.9514C1.94023 17.4576 2.44649 17.767 3.04414 17.999C3.6207 18.224 4.28867 18.3787 5.25195 18.4209C6.22227 18.4631 6.53164 18.4771 9.00664 18.4771C11.4816 18.4771 11.791 18.4701 12.7613 18.4209C13.7316 18.3787 14.3926 18.224 14.9691 17.999C15.5668 17.767 16.073 17.4576 16.5793 16.9514C17.0855 16.4451 17.3949 15.9389 17.627 15.3412C17.852 14.7646 18.0066 14.0967 18.0488 13.1334C18.091 12.1631 18.1051 11.8537 18.1051 9.37871C18.1051 6.90371 18.098 6.59434 18.0488 5.62402C18.0066 4.65371 17.852 3.99277 17.627 3.41621ZM16.4105 13.0561C16.3684 13.942 16.2207 14.4271 16.0941 14.7436C15.9324 15.1654 15.7285 15.4748 15.4121 15.7912C15.0957 16.1076 14.7934 16.3045 14.3645 16.4732C14.041 16.5998 13.5629 16.7475 12.677 16.7896C11.7137 16.8318 11.4324 16.8459 8.99961 16.8459C6.5668 16.8459 6.27852 16.8389 5.32227 16.7896C4.43633 16.7475 3.95117 16.5998 3.63477 16.4732C3.21289 16.3115 2.90352 16.1076 2.58711 15.7912C2.2707 15.4748 2.07383 15.1725 1.90508 14.7436C1.77852 14.4201 1.63086 13.942 1.58867 13.0561C1.54649 12.0928 1.53242 11.8045 1.53242 9.37871C1.53242 6.95293 1.53945 6.65762 1.58867 5.70137C1.63086 4.81543 1.77852 4.33027 1.90508 4.01387C2.0668 3.59199 2.2707 3.28262 2.58711 2.96621C2.90352 2.6498 3.20586 2.45293 3.63477 2.28418C3.9582 2.15762 4.43633 2.00996 5.32227 1.96777C6.28555 1.92559 6.57383 1.91152 8.99961 1.91152C11.4254 1.91152 11.7207 1.91855 12.677 1.96777C13.5629 2.00996 14.048 2.15762 14.3645 2.28418C14.7863 2.4459 15.0957 2.6498 15.4121 2.96621C15.7285 3.28262 15.9254 3.58496 16.0941 4.01387C16.2207 4.33731 16.3684 4.81543 16.4105 5.70137C16.4527 6.66465 16.4668 6.95293 16.4668 9.37871C16.4668 11.8045 16.4527 12.0998 16.4105 13.0561Z" fill="url(#paint0_radial_1_394)"/>
    <path d="M8.99979 4.70301C6.41932 4.70301 4.32401 6.79832 4.32401 9.37879C4.32401 11.9593 6.41932 14.0546 8.99979 14.0546C11.5803 14.0546 13.6756 11.9593 13.6756 9.37879C13.6756 6.79832 11.5803 4.70301 8.99979 4.70301ZM8.99979 12.4163C7.32635 12.4163 5.96229 11.0593 5.96229 9.37879C5.96229 7.70535 7.31932 6.34129 8.99979 6.34129C10.6803 6.34129 12.0373 7.69832 12.0373 9.37879C12.0373 11.0522 10.6732 12.4163 8.99979 12.4163Z" fill="url(#paint1_radial_1_394)"/>
    <path d="M13.8579 5.60991C14.4598 5.60991 14.9477 5.12197 14.9477 4.52006C14.9477 3.91816 14.4598 3.43022 13.8579 3.43022C13.256 3.43022 12.768 3.91816 12.768 4.52006C12.768 5.12197 13.256 5.60991 13.8579 5.60991Z" fill="url(#paint2_radial_1_394)"/>
    <defs>
    <radialGradient id="paint0_radial_1_394" cx="0" cy="0" r="1" gradientUnits="userSpaceOnUse" gradientTransform="translate(5.18682 18.4391) scale(18.3592 18.3592)">
    <stop stop-color="#FFD776"/>
    <stop offset="0.2463" stop-color="#F3A554"/>
    <stop offset="0.3793" stop-color="#F15C3C"/>
    <stop offset="0.5394" stop-color="#D94867"/>
    <stop offset="0.6995" stop-color="#C32F87"/>
    <stop offset="0.9122" stop-color="#7D63A7"/>
    <stop offset="0.9852" stop-color="#5C6CB3"/>
    </radialGradient>
    <radialGradient id="paint1_radial_1_394" cx="0" cy="0" r="1" gradientUnits="userSpaceOnUse" gradientTransform="translate(7.04187 14.0313) scale(9.4277)">
    <stop stop-color="#FFD776"/>
    <stop offset="0.2463" stop-color="#F3A554"/>
    <stop offset="0.3793" stop-color="#F15C3C"/>
    <stop offset="0.607" stop-color="#D94867"/>
    <stop offset="0.8346" stop-color="#C32F87"/>
    <stop offset="0.9577" stop-color="#7D63A7"/>
    <stop offset="1" stop-color="#5C6CB3"/>
    </radialGradient>
    <radialGradient id="paint2_radial_1_394" cx="0" cy="0" r="1" gradientUnits="userSpaceOnUse" gradientTransform="translate(13.4024 5.60501) scale(2.2031 2.2031)">
    <stop stop-color="#5F6DB3"/>
    <stop offset="1" stop-color="#5C6CB3"/>
    </radialGradient>
    </defs>
</symbol>





</svg>
